# xmcd
#
# Track frame offsets:
#	182
#	12502
#	22712
#	34267
#	44332
#	55800
#	65202
#	79735
#	90472
#	99817
#	109667
#	117727
#
# Disc length: 1696 seconds
#
# Revision: 0
# Processed by: cddbd v1.4PL0 Copyright (c) Steve Scherf et al.
# Submitted via: audiograbber 1.81.01
#
DISCID=94069e0c
DTITLE=Neil Sedaka - I Grandi Successi Originali cd1
DYEAR=1900
DGENRE=pop
TTITLE0=Esagerata
TTITLE1=Un giorno inutile
TTITLE2=Il rè dei pagliacci
TTITLE3=Tu non lo sai
TTITLE4=non cercare un'altra bocca
TTITLE5=Sarà sarà
TTITLE6=I tuoi capricci
TTITLE7=La terza luna
TTITLE8=a 16 anni tù vuoi amare
TTITLE9=Mai sarà come te
TTITLE10=l'ultimo appuntamento
TTITLE11=Adesso no
EXTD=
EXTT0=
EXTT1=
EXTT2=
EXTT3=
EXTT4=
EXTT5=
EXTT6=
EXTT7=
EXTT8=
EXTT9=
EXTT10=
EXTT11=
PLAYORDER=
